<svg data-v-0dd9719b="" version="1.0" xmlns="http://www.w3.org/2000/svg" xmlns:xlink="http://www.w3.org/1999/xlink" width="100%" height="100%" viewBox="0 0 340.000000 250.000000" preserveAspectRatio="xMidYMid meet" color-interpolation-filters="sRGB" style="margin: auto;"> <rect data-v-0dd9719b="" x="0" y="0" width="100%" height="100%" fill="#fff" fill-opacity="1" class="background"></rect> <rect data-v-0dd9719b="" x="0" y="0" width="100%" height="100%" fill="url(#watermark)" fill-opacity="1" class="watermarklayer"></rect> <g data-v-0dd9719b="" fill="#359f1b" class="icon-text-wrapper icon-svg-group iconsvg" transform="translate(49.30999755859375,97.73297500610352)"><g class="iconsvg-imagesvg" transform="translate(0,0)"><g><rect fill="#359f1b" fill-opacity="0" stroke-width="2" x="0" y="0" width="60" height="54.53405197095152" class="image-rect"></rect> <svg x="0" y="0" width="60" height="54.53405197095152" filtersec="colorsb5548709874" class="image-svg-svg primary" style="overflow: visible;"><svg version="1.1" id="图层_1" xmlns="http://www.w3.org/2000/svg" xmlns:xlink="http://www.w3.org/1999/xlink" x="0px" y="0px" viewBox="1.0299999713897705 0.9989337921142578 97.93687438964844 89.01480102539062" enable-background="new 0 0 100 91" xml:space="preserve">
<path fill="#4ABA00" d="M90.93,77.9c-8.46,9.88-21.42,13.61-33.25,10.76c6.84-1.51,13.25-5.17,18.16-10.9
	c12.01-14.03,10.37-35.15-3.66-47.16c-4.15-3.55-8.93-5.9-13.9-7.1c9.91-2.19,20.7,0.13,29,7.24
	C101.3,42.76,102.94,63.87,90.93,77.9z"></path>
<ellipse transform="matrix(0.1832 -0.9831 0.9831 0.1832 3.7175 116.1553)" fill="#4ABA00" cx="71.76" cy="55.84" rx="9.58" ry="9.58"></ellipse>
<path fill="#359F1B" d="M86.44,48.06c5.04,14.1,1.18,29.22-8.66,39.22c-6.39,2.51-13.42,3-20.1,1.39
	c6.83-1.51,13.25-5.17,18.16-10.9c12.01-14.03,10.37-35.15-3.66-47.16c-2.93-2.51-6.18-4.41-9.58-5.73
	C73.31,28.38,82.35,36.62,86.44,48.06z"></path>
<path fill="#00A0EE" d="M1.03,82.97l9.39-14.89c-0.05-0.14-0.11-0.27-0.16-0.41C5.93,55.42,9.18,42.32,17.56,33.5
	c-2.11,6.68-2.15,14.07,0.36,21.18c6.15,17.42,25.25,26.55,42.67,20.41c5.16-1.82,9.58-4.78,13.1-8.49
	c-3.06,9.68-10.46,17.86-20.77,21.5c-12.92,4.56-26.77,0.7-35.57-8.7L1.03,82.97z"></path>
<ellipse transform="matrix(0.1832 -0.9831 0.9831 0.1832 -29.3933 88.9722)" fill="#00A0EE" cx="38.85" cy="62.18" rx="9.58" ry="9.58"></ellipse>
<path fill="#1681E5" d="M39.12,78.9c-15-2.32-26.5-13.09-30.49-26.76c0.94-6.93,3.99-13.48,8.72-18.68
	c-2.04,6.86-1.97,14.38,0.68,21.55c6.5,17.56,26.03,26.32,43.64,19.56c3.68-1.41,6.97-3.4,9.83-5.81
	C63.07,76.66,51.29,80.78,39.12,78.9z"></path>
<g>
	<path fill="#4ABA00" d="M59.22,1.57c12.78,2.38,22.5,11.75,25.95,23.42c-4.73-5.16-11.11-8.89-18.52-10.27
		c-18.16-3.38-35.62,8.59-39.01,26.75c-1,5.37-0.65,10.69,0.8,15.59c-6.86-7.49-10.23-17.99-8.23-28.74
		C23.6,10.16,41.06-1.81,59.22,1.57z"></path>
</g>
<path fill="#FFD100" d="M59.22,1.57c12.78,2.38,22.5,11.75,25.95,23.42c-4.73-5.16-11.11-8.89-18.52-10.27
	c-18.16-3.38-35.62,8.59-39.01,26.75c-1,5.37-0.65,10.69,0.8,15.59c-6.86-7.49-10.23-17.99-8.23-28.74
	C23.6,10.16,41.06-1.81,59.22,1.57z"></path>
<ellipse transform="matrix(0.1832 -0.9831 0.9831 0.1832 11.0823 73.109)" fill="#FFD100" cx="49.54" cy="29.89" rx="9.58" ry="9.58"></ellipse>
<path fill="#FDBC2D" d="M34.99,20.77C44.51,8.95,59.6,4.4,73.43,7.79c5.53,4.29,9.66,10.21,11.8,16.91
	c-4.91-5.2-11.46-8.92-18.99-10.21c-18.45-3.18-35.82,9.34-38.79,27.96c-0.62,3.89-0.55,7.73,0.1,11.42
	C24.92,42.62,27.27,30.36,34.99,20.77z"></path>
</svg></svg> <!----></g></g> <g transform="translate(67,0.10577392578125)"><g data-gra="path-name" fill-rule="" class="tp-name iconsvg-namesvg" transform="translate(0,0)"><g transform="scale(1)"><g><path d="M2.68-9.14L2.68-5.58 10.9-6.42 10.9 1.71 16.39 1.71 16.39-6.99 20.08-7.38 20.08-10.94 16.39-10.55 16.39-15.38 20.08-15.38 20.08-18.94 16.39-18.94 16.39-25.93 10.9-25.93 10.9-18.94 9.67-18.94Q9.27-18.94 9.01-19.25L9.01-19.25Q8.79-19.56 8.88-19.95L8.88-19.95 11.25-28.74 20.08-28.74 20.08-32.34 12.22-32.34 13.67-37.66 8.17-37.66 6.72-32.34 2.68-32.34 2.68-28.74 5.76-28.74 3.34-19.69Q3.12-18.94 3.12-18.19L3.12-18.19 3.12-17.36Q3.12-16.52 3.69-15.95L3.69-15.95Q4.31-15.38 5.1-15.38L5.1-15.38 10.9-15.38 10.9-9.98 2.68-9.14ZM28.61-18.98L20.57-18.98 20.57-15.38 28.61-15.38 28.61 1.71 33.97 1.71 33.97-15.38 42.01-15.38 42.01-18.98 33.97-18.98 33.97-31.6 41.13-31.6 41.13-35.2 21.45-35.2 21.45-31.6 28.61-31.6 28.61-18.98ZM47.68-9.14L47.68-5.58 55.9-6.42 55.9 1.71 61.39 1.71 61.39-6.99 65.08-7.38 65.08-10.94 61.39-10.55 61.39-15.38 65.08-15.38 65.08-18.94 61.39-18.94 61.39-25.93 55.9-25.93 55.9-18.94 54.67-18.94Q54.27-18.94 54.01-19.25L54.01-19.25Q53.79-19.56 53.88-19.95L53.88-19.95 56.25-28.74 65.08-28.74 65.08-32.34 57.22-32.34 58.67-37.66 53.17-37.66 51.72-32.34 47.68-32.34 47.68-28.74 50.76-28.74 48.34-19.69Q48.12-18.94 48.12-18.19L48.12-18.19 48.12-17.36Q48.12-16.52 48.69-15.95L48.69-15.95Q49.31-15.38 50.1-15.38L50.1-15.38 55.9-15.38 55.9-9.98 47.68-9.14ZM73.61-18.98L65.57-18.98 65.57-15.38 73.61-15.38 73.61 1.71 78.97 1.71 78.97-15.38 87.01-15.38 87.01-18.98 78.97-18.98 78.97-31.6 86.13-31.6 86.13-35.2 66.45-35.2 66.45-31.6 73.61-31.6 73.61-18.98ZM99.84-4.57L104.77-4.57 105.91-8.61 107.01-4.57 111.93-4.57 108.37-17.53 111.93-30.5 107.01-30.5 105.91-26.46 104.77-30.5 99.84-30.5 103.45-17.53 99.84-4.57ZM112.85-4.57L117.77-4.57 118.87-8.61 120.01-4.57 124.94-4.57 121.33-17.53 124.94-30.5 120.01-30.5 118.87-26.46 117.77-30.5 112.85-30.5 116.41-17.53 112.85-4.57ZM93.56-34.54L93.56 1.71 98.96 1.71 98.96-32.3Q98.96-33.22 99.84-33.22L99.84-33.22 124.89-33.22Q125.82-33.22 125.82-32.3L125.82-32.3 125.82-2.77Q125.82-1.89 124.89-1.89L124.89-1.89 121.33-1.89 122.21 1.71 128.94 1.71Q129.86 1.71 130.52 1.05L130.52 1.05Q131.18 0.4 131.18-0.53L131.18-0.53 131.18-34.54Q131.18-35.46 130.52-36.12L130.52-36.12Q129.86-36.78 128.94-36.78L128.94-36.78 95.8-36.78Q94.88-36.78 94.22-36.12L94.22-36.12Q93.56-35.46 93.56-34.54L93.56-34.54ZM156.97 1.71L173.06 1.71Q173.98 1.71 174.64 1.05L174.64 1.05Q175.3 0.4 175.3-0.53L175.3-0.53 175.3-11.73Q175.3-12.66 174.64-13.32L174.64-13.32Q173.98-13.97 173.06-13.97L173.06-13.97 156.97-13.97Q156.05-13.97 155.39-13.32L155.39-13.32Q154.78-12.66 154.78-11.73L154.78-11.73 154.78-0.53Q154.78 0.4 155.39 1.05L155.39 1.05Q156.05 1.71 156.97 1.71L156.97 1.71ZM160.14-2.77L160.14-9.49Q160.14-10.37 161.02-10.37L161.02-10.37 169.01-10.37Q169.89-10.37 169.89-9.49L169.89-9.49 169.89-2.77Q169.89-1.89 169.01-1.89L169.01-1.89 161.02-1.89Q160.14-1.89 160.14-2.77L160.14-2.77ZM152.89-26.94L155.08-26.94Q155.52-25.88 156.53-25.14L156.53-25.14 161.1-21.8 152.89-15.73 160.71-15.73 164.97-18.9 169.28-15.73 177.06-15.73 168.88-21.8 173.45-25.14Q175.3-26.5 175.3-28.74L175.3-28.74 175.3-32.74Q175.3-33.66 174.64-34.32L174.64-34.32Q173.98-34.98 173.06-34.98L173.06-34.98 161.28-34.98 162.29-37.66 156.93-37.66 152.89-26.94ZM159.96-31.42L169.01-31.42Q169.89-31.42 169.89-30.5L169.89-30.5 169.89-29.18Q169.89-28.3 169.19-27.73L169.19-27.73 164.97-24.65 160.8-27.73Q160.05-28.3 160.05-29.18L160.05-29.18 160.05-29.62 159.3-29.62 159.96-31.42ZM139.92-20.65L143.22-20.65 138.82-12.22Q138.56-11.73 138.56-11.16L138.56-11.16 138.56-10.37Q138.56-9.45 139.22-8.79L139.22-8.79Q139.88-8.13 140.8-8.13L140.8-8.13 152.01-8.13 152.01-11.73 146.07-11.73Q145.59-11.73 145.33-12.13L145.33-12.13Q145.06-12.57 145.28-13.01L145.28-13.01 153.15-28.74 147.39-28.74 145.11-24.26 144.89-24.26Q144.4-24.26 144.14-24.65L144.14-24.65Q143.88-25.09 144.1-25.53L144.1-25.53 150.16-37.66 144.4-37.66 137.9-24.74Q137.68-24.26 137.68-23.73L137.68-23.73 137.68-22.9Q137.68-21.97 138.34-21.31L138.34-21.31Q139-20.65 139.92-20.65L139.92-20.65ZM152.01-0.97L152.01-4.57 137.68-2.77 137.68 0.83 152.01-0.97Z" transform="translate(-2.680000066757202, 37.65999984741211)"></path></g> <!----> <!----> <!----> <!----> <!----> <!----> <!----></g></g> <g data-gra="path-slogan" fill-rule="" class="tp-slogan iconsvg-slogansvg" fill="#359f1b" transform="translate(5,45.37000274658203)"><rect x="0" height="1" y="3.9750008583068848" width="13.915000915527344"></rect> <rect height="1" y="3.9750008583068848" width="13.915000915527344" x="150.46500396728516"></rect> <g transform="translate(16.915000915527344,0)"><g transform="scale(1)"><path d="M7.64-8.58L4.73-4.41L7.78 0L6.33 0L3.98-3.52L1.64 0L0.23 0L3.33-4.41L0.42-8.58L1.88-8.58L4.03-5.30L6.23-8.58L7.64-8.58ZM14.53-3.19L14.53-8.58L15.70-8.58L15.70-3.05Q15.56 0.05 12.19 0.14L12.19 0.14Q9.05 0.05 8.91-2.86L8.91-2.86L8.91-8.58L10.08-8.58L10.08-3.19Q10.13-0.84 12.23-0.80L12.23-0.80Q14.53-0.84 14.53-3.19L14.53-3.19ZM23.16 0L22.31-2.48L18.84-2.48L17.95 0L16.78 0L20.02-8.58L21.33-8.58L24.42 0L23.16 0ZM20.58-7.31L19.22-3.52L21.89-3.52L20.63-7.31L20.58-7.31ZM26.86-8.58L31.17-1.64L31.17-8.58L32.30-8.58L32.30 0L30.98 0L26.63-6.94L26.58-6.94L26.58 0L25.45 0L25.45-8.58L26.86-8.58ZM40.83-8.58L37.92-4.41L40.97 0L39.52 0L37.17-3.52L34.83 0L33.42 0L36.52-4.41L33.61-8.58L35.06-8.58L37.22-5.30L39.42-8.58L40.83-8.58ZM47.72-3.19L47.72-8.58L48.89-8.58L48.89-3.05Q48.75 0.05 45.38 0.14L45.38 0.14Q42.23 0.05 42.09-2.86L42.09-2.86L42.09-8.58L43.27-8.58L43.27-3.19Q43.31-0.84 45.42-0.80L45.42-0.80Q47.72-0.84 47.72-3.19L47.72-3.19ZM56.34 0L55.50-2.48L52.03-2.48L51.14 0L49.97 0L53.20-8.58L54.52-8.58L57.61 0L56.34 0ZM53.77-7.31L52.41-3.52L55.08-3.52L53.81-7.31L53.77-7.31ZM60.05-8.58L64.36-1.64L64.36-8.58L65.48-8.58L65.48 0L64.17 0L59.81-6.94L59.77-6.94L59.77 0L58.64 0L58.64-8.58L60.05-8.58ZM72-8.58L76.31-1.64L76.31-8.58L77.44-8.58L77.44 0L76.13 0L71.77-6.94L71.72-6.94L71.72 0L70.59 0L70.59-8.58L72-8.58ZM80.53-1.03L85.69-1.03L85.69 0L79.36 0L79.36-8.58L85.59-8.58L85.59-7.59L80.53-7.59L80.53-4.92L85.22-4.92L85.22-3.89L80.53-3.89L80.53-1.03ZM89.39-7.59L86.48-7.59L86.48-8.58L93.42-8.58L93.42-7.59L90.52-7.59L90.52 0L89.39 0L89.39-7.59ZM99.23-7.13L99.19-7.13L97.22 0L96 0L93.75-8.58L94.97-8.58L96.61-1.59L96.66-1.59L98.58-8.58L99.84-8.58L101.77-1.59L101.81-1.59L103.41-8.58L104.67-8.58L102.42 0L101.20 0L99.23-7.13ZM112.55-4.27L112.55-4.27Q112.36-7.64 109.55-7.83L109.55-7.83Q106.69-7.69 106.55-4.27L106.55-4.27Q106.69-0.94 109.55-0.80L109.55-0.80Q112.36-0.98 112.55-4.27ZM113.72-4.27L113.72-4.27Q113.44 0 109.55 0.14L109.55 0.14Q105.61 0 105.33-4.27L105.33-4.27Q105.56-8.72 109.55-8.81L109.55-8.81Q113.44-8.67 113.72-4.27ZM119.20-3.70L116.39-3.70L116.39 0L115.22 0L115.22-8.58L119.20-8.58Q122.06-8.58 122.06-6.28L122.06-6.28Q122.06-4.88 120.84-4.22L120.84-4.22Q121.88-3.94 121.88-2.58L121.88-2.58L121.97-1.03Q121.92-0.38 122.39-0.19L122.39-0.19L122.39 0L120.94 0Q120.80-0.61 120.75-2.16L120.75-2.16Q120.80-3.70 119.20-3.70L119.20-3.70ZM119.30-7.64L116.39-7.64L116.39-4.69L119.11-4.69Q120.84-4.69 120.84-6.19L120.84-6.19Q120.84-7.64 119.30-7.64L119.30-7.64ZM126.23-4.31L124.88-3.05L124.88 0L123.70 0L123.70-8.58L124.88-8.58L124.88-4.41L129.05-8.58L130.69-8.58L127.08-5.11L130.78 0L129.23 0L126.23-4.31Z" transform="translate(-0.234375, 8.8125)"></path></g></g></g></g></g><defs v-gra="od"></defs></svg>